<svg width="192" height="192" viewBox="0 0 192 192" fill="none" xmlns="http://www.w3.org/2000/svg">
  <!-- 背景圆形 -->
  <circle cx="96" cy="96" r="88" fill="url(#gradient)" />
  
  <!-- 大脑轮廓 -->
  <path d="M96 40C65.072 40 40 65.072 40 96c0 30.928 25.072 56 56 56s56-25.072 56-56c0-30.928-25.072-56-56-56zm0 100c-24.3 0-44-19.7-44-44s19.7-44 44-44 44 19.7 44 44-19.7 44-44 44z" fill="white" fill-opacity="0.9"/>
  
  <!-- 区块链连接线 -->
  <path d="M76 86l20-20 20 20m-40 20l20 20 20-20" stroke="white" stroke-width="4" stroke-linecap="round"/>
  
  <!-- 渐变定义 -->
  <defs>
    <linearGradient id="gradient" x1="0" y1="0" x2="192" y2="192" gradientUnits="userSpaceOnUse">
      <stop offset="0%" stop-color="#A78BFA"/>
      <stop offset="100%" stop-color="#60A5FA"/>
    </linearGradient>
  </defs>
</svg>